# Blender v2.81 (sub 16) OBJ File: 'Drawer.blend'
# www.blender.org
mtllib Drawer.mtl
o Drawer_Cube
v 1.000000 2.200000 1.000000
v 0.865471 0.200000 0.865471
v 0.900000 0.966667 -1.000000
v 0.900000 1.633333 -1.000000
v -1.000000 2.200000 1.000000
v -0.865471 0.200000 0.865471
v 0.900000 0.300000 -1.000000
v -0.900000 0.300000 -1.000000
v 0.900000 2.100000 -1.000000
v -0.900000 2.100000 -1.000000
v -0.900000 1.633333 -1.000000
v -0.900000 0.966667 -1.000000
v 1.200000 2.200000 1.000000
v -1.200000 2.200000 1.000000
v -1.200000 2.200000 -1.100000
v 1.200000 2.300000 1.000000
v -1.200000 2.300000 1.000000
v -1.200000 2.300000 -1.100000
v 1.200000 2.200000 -1.100000
v 1.200000 2.300000 -1.100000
v -1.000000 2.200000 -1.000000
v -0.900000 1.433333 -1.000000
v 1.000000 2.200000 -1.000000
v 0.900000 1.433333 -1.000000
v -1.000000 1.533333 -1.000000
v -0.900000 0.766667 -1.000000
v 1.000000 1.533333 -1.000000
v 0.900000 0.766667 -1.000000
v 0.865471 0.200000 -0.865471
v -0.865471 0.200000 -0.865471
v 1.000000 0.866667 -1.000000
v -1.000000 0.866667 -1.000000
v 0.900000 0.300000 -1.000000
v -0.900000 0.300000 -1.000000
v 0.900000 0.766667 -1.000000
v -0.900000 0.766667 -1.000000
v -0.989315 2.172568 -1.000000
v -0.989315 1.560766 -1.000000
v 0.989315 2.172568 -1.000000
v 0.989315 1.560766 -1.000000
v -0.989315 1.505901 -1.000000
v -0.989315 0.894099 -1.000000
v 0.989315 1.505901 -1.000000
v 0.989315 0.894099 -1.000000
v 0.989315 0.227432 -1.000000
v -0.989315 0.227432 -1.000000
v 0.989315 0.839234 -1.000000
v -0.989315 0.839234 -1.000000
v -0.035752 1.904056 -1.100000
v -0.035752 1.829278 -1.100000
v 0.035752 1.904056 -1.100000
v 0.035752 1.829278 -1.100000
v -0.035752 1.237389 -1.100000
v -0.035752 1.162611 -1.100000
v 0.035752 1.237389 -1.100000
v 0.035752 1.162611 -1.100000
v 0.035752 0.495944 -1.100000
v -0.035752 0.495944 -1.100000
v 0.035752 0.570722 -1.100000
v -0.035752 0.570722 -1.100000
v -0.989315 2.172568 -1.100000
v -0.989315 1.560766 -1.100000
v 0.989315 2.172568 -1.100000
v 0.989315 1.560766 -1.100000
v -0.989315 1.505901 -1.100000
v -0.989315 0.894099 -1.100000
v 0.989315 1.505901 -1.100000
v 0.989315 0.894099 -1.100000
v 0.989315 0.227432 -1.100000
v -0.989315 0.227432 -1.100000
v 0.989315 0.839234 -1.100000
v -0.989315 0.839234 -1.100000
v -0.023441 1.891181 -1.200000
v -0.023441 1.842152 -1.200000
v 0.023441 1.891181 -1.200000
v 0.023441 1.842152 -1.200000
v -0.023441 1.224515 -1.200000
v -0.023441 1.175485 -1.200000
v 0.023441 1.224515 -1.200000
v 0.023441 1.175485 -1.200000
v 0.023441 0.508818 -1.200000
v -0.023441 0.508818 -1.200000
v 0.023441 0.557848 -1.200000
v -0.023441 0.557848 -1.200000
v -0.044197 1.912887 -1.250000
v -0.044197 1.820446 -1.250000
v 0.044197 1.912887 -1.250000
v 0.044197 1.820446 -1.250000
v -0.044197 1.246221 -1.250000
v -0.044197 1.153779 -1.250000
v 0.044197 1.246221 -1.250000
v 0.044197 1.153779 -1.250000
v 0.044197 0.487113 -1.250000
v -0.044197 0.487113 -1.250000
v 0.044197 0.579554 -1.250000
v -0.044197 0.579554 -1.250000
v -0.044197 1.866667 -1.250000
v 0.044197 1.866667 -1.250000
v 0.000000 1.820446 -1.250000
v 0.000000 1.912887 -1.250000
v -0.044197 1.200000 -1.250000
v 0.044197 1.200000 -1.250000
v 0.000000 1.246221 -1.250000
v 0.000000 1.153779 -1.250000
v 0.000000 0.487113 -1.250000
v 0.044197 0.533333 -1.250000
v -0.044197 0.533333 -1.250000
v 0.000000 0.579554 -1.250000
v 0.000000 0.533333 -1.297035
v 0.000000 1.200000 -1.297035
v 0.000000 1.866667 -1.297035
v -0.865471 0.200000 0.634529
v -0.634529 0.200000 -0.865471
v 0.634529 0.200000 0.865471
v 0.865471 0.200000 -0.634529
v -0.865471 0.200000 -0.634529
v 0.634529 0.200000 -0.865471
v -0.634529 0.200000 0.865471
v 0.865471 0.200000 0.634529
v 0.634529 0.200000 -0.634529
v -0.634529 0.200000 -0.634529
v -0.634529 0.200000 0.634529
v 0.634529 0.200000 0.634529
v -1.000000 0.200000 0.500000
v -1.000000 0.200000 1.000000
v -0.500000 0.200000 -1.000000
v -1.000000 0.200000 -1.000000
v 0.500000 0.200000 1.000000
v 1.000000 0.200000 1.000000
v 1.000000 0.200000 -0.500000
v 1.000000 0.200000 -1.000000
v -1.000000 0.200000 -0.500000
v 0.500000 0.200000 -1.000000
v -0.500000 0.200000 1.000000
v 1.000000 0.200000 0.500000
v 0.500000 0.200000 -0.500000
v -0.500000 0.200000 -0.500000
v -0.500000 0.200000 0.500000
v 0.500000 0.200000 0.500000
v -0.865471 0.088614 0.634529
v -0.865471 0.088614 0.865471
v -0.634529 0.088614 -0.865471
v -0.865471 0.088614 -0.865471
v 0.634529 0.088614 0.865471
v 0.865471 0.088614 0.865471
v 0.865471 0.088614 -0.634529
v 0.865471 0.088614 -0.865471
v -0.865471 0.088614 -0.634529
v 0.634529 0.088614 -0.865471
v -0.634529 0.088614 0.865471
v 0.865471 0.088614 0.634529
v 0.634529 0.088614 -0.634529
v -0.634529 0.088614 -0.634529
v -0.634529 0.088614 0.634529
v 0.634529 0.088614 0.634529
v -0.822847 0.000000 0.677153
v -0.822847 0.000000 0.822847
v -0.677153 0.000000 -0.822847
v -0.822847 0.000000 -0.822847
v 0.677153 0.000000 0.822847
v 0.822847 0.000000 0.822847
v 0.822847 0.000000 -0.677153
v 0.822847 0.000000 -0.822847
v -0.822847 0.000000 -0.677153
v 0.677153 0.000000 -0.822847
v -0.677153 0.000000 0.822847
v 0.822847 0.000000 0.677153
v 0.677153 0.000000 -0.677153
v -0.677153 0.000000 -0.677153
v -0.677153 0.000000 0.677153
v 0.677153 0.000000 0.677153
vt 0.141816 0.704316
vt 0.170684 0.704316
vt 0.170684 0.704316
vt 0.141816 0.704316
vt 0.458333 0.500000
vt 0.541667 0.500000
vt 0.625000 0.500000
vt 0.625000 0.750000
vt 0.375000 0.750000
vt 0.375000 0.687500
vt 0.375000 0.562500
vt 0.375000 0.500000
vt 0.470833 0.262500
vt 0.529167 0.262500
vt 0.529167 0.262500
vt 0.470833 0.262500
vt 0.375000 0.000000
vt 0.625000 0.000000
vt 0.625000 0.250000
vt 0.541667 0.250000
vt 0.458333 0.250000
vt 0.375000 0.250000
vt 0.375000 0.187500
vt 0.375000 0.062500
vt 0.625000 1.000000
vt 0.375000 1.000000
vt 0.375000 0.937500
vt 0.375000 0.812500
vt 0.625000 0.750000
vt 0.625000 1.000000
vt 0.625000 1.000000
vt 0.625000 0.750000
vt 0.625000 0.500000
vt 0.875000 0.500000
vt 0.875000 0.500000
vt 0.625000 0.500000
vt 0.875000 0.750000
vt 0.625000 0.000000
vt 0.625000 0.250000
vt 0.625000 0.000000
vt 0.625000 0.250000
vt 0.445833 0.487500
vt 0.387500 0.487500
vt 0.387500 0.487500
vt 0.445833 0.487500
vt 0.445833 0.262500
vt 0.445833 0.487500
vt 0.445833 0.262500
vt 0.612500 0.262500
vt 0.554167 0.262500
vt 0.554167 0.487500
vt 0.612500 0.487500
vt 0.470833 0.487500
vt 0.529167 0.487500
vt 0.387500 0.262500
vt 0.387500 0.487500
vt 0.375000 0.437500
vt 0.375000 0.312500
vt 0.554167 0.487500
vt 0.612500 0.487500
vt 0.387500 0.262500
vt 0.554167 0.262500
vt 0.612500 0.262500
vt 0.612500 0.262500
vt 0.554167 0.262500
vt 0.387500 0.262500
vt 0.445833 0.262500
vt 0.445833 0.262500
vt 0.387500 0.262500
vt 0.612500 0.487500
vt 0.470833 0.487500
vt 0.529167 0.487500
vt 0.470833 0.262500
vt 0.470833 0.487500
vt 0.529167 0.262500
vt 0.445833 0.487500
vt 0.554167 0.487500
vt 0.387500 0.487500
vt 0.529167 0.487500
vt 0.590514 0.288721
vt 0.576152 0.288721
vt 0.576152 0.461279
vt 0.590514 0.461279
vt 0.507181 0.288721
vt 0.492819 0.288721
vt 0.492819 0.461279
vt 0.507181 0.461279
vt 0.409486 0.288721
vt 0.409486 0.461279
vt 0.423847 0.461279
vt 0.423847 0.288721
vt 0.312500 0.687500
vt 0.312500 0.750000
vt 0.187500 0.750000
vt 0.187500 0.687500
vt 0.125000 0.687500
vt 0.125000 0.562500
vt 0.187500 0.562500
vt 0.187500 0.500000
vt 0.312500 0.500000
vt 0.312500 0.562500
vt 0.329316 0.516816
vt 0.358184 0.516816
vt 0.358184 0.516816
vt 0.329316 0.516816
vt 0.170684 0.733184
vt 0.170684 0.733184
vt 0.141816 0.545684
vt 0.141816 0.516816
vt 0.141816 0.516816
vt 0.141816 0.545684
vt 0.141816 0.733184
vt 0.125000 0.750000
vt 0.170684 0.516816
vt 0.125000 0.500000
vt 0.329316 0.733184
vt 0.358184 0.733184
vt 0.358184 0.545684
vt 0.358184 0.704316
vt 0.329316 0.545684
vt 0.170684 0.545684
vt 0.329316 0.704316
vt 0.358184 0.545684
vt 0.358184 0.545684
vt 0.358184 0.516816
vt 0.170684 0.516816
vt 0.170684 0.545684
vt 0.170684 0.545684
vt 0.170684 0.516816
vt 0.358184 0.733184
vt 0.329316 0.733184
vt 0.329316 0.733184
vt 0.358184 0.733184
vt 0.329316 0.545684
vt 0.329316 0.545684
vt 0.141816 0.733184
vt 0.329316 0.704316
vt 0.358184 0.704316
vt 0.329316 0.704316
vt 0.358184 0.704316
vt 0.329316 0.516816
vt 0.141816 0.516816
vt 0.141816 0.545684
vt 0.141816 0.704316
vt 0.170684 0.704316
vt 0.170684 0.733184
vt 0.141816 0.733184
vt 0.507181 0.461279
vt 0.507181 0.288721
vt 0.409486 0.461279
vt 0.423847 0.461279
vt 0.576152 0.288721
vt 0.576152 0.461279
vt 0.507181 0.461279
vt 0.507181 0.375000
vt 0.507181 0.288721
vt 0.409486 0.461279
vt 0.416667 0.461279
vt 0.423847 0.461279
vt 0.576152 0.288721
vt 0.576152 0.375000
vt 0.576152 0.461279
vt 0.590514 0.461279
vt 0.590514 0.288721
vt 0.423847 0.288721
vt 0.409486 0.288721
vt 0.492819 0.288721
vt 0.492819 0.461279
vt 0.583333 0.375000
vt 0.590514 0.375000
vt 0.590514 0.461279
vt 0.583333 0.461279
vt 0.500000 0.375000
vt 0.500000 0.461279
vt 0.416667 0.375000
vt 0.416667 0.288721
vt 0.423847 0.288721
vt 0.423847 0.375000
vt 0.590514 0.288721
vt 0.409486 0.288721
vt 0.583333 0.288721
vt 0.492819 0.288721
vt 0.492819 0.375000
vt 0.492819 0.461279
vt 0.500000 0.288721
vt 0.409486 0.375000
vn 0.0000 0.0000 -1.0000
vn 1.0000 0.0000 0.0000
vn 0.0000 0.0000 1.0000
vn -1.0000 0.0000 0.0000
vn 0.0000 1.0000 0.0000
vn 0.0000 -1.0000 0.0000
vn 0.9012 -0.4335 0.0000
vn 0.0000 -0.4335 0.9012
vn -0.9012 -0.4335 0.0000
vn 0.0000 -0.4335 -0.9012
vn 0.0000 0.9918 -0.1277
vn 0.9925 0.0000 -0.1222
vn 0.0000 -0.9918 -0.1277
vn 0.0000 0.9173 0.3982
vn 0.9236 0.0000 0.3834
vn 0.0000 -0.9173 0.3982
vn -0.9925 0.0000 -0.1222
vn 0.4285 0.4097 -0.8053
vn -0.4285 0.4097 -0.8053
vn -0.9236 0.0000 0.3834
vn 0.4285 -0.4097 -0.8053
vn -0.4285 -0.4097 -0.8053
usemtl Base
s off
f 112/1/1 122/2/1 154/3/1 140/4/1
f 31/5/2 27/6/2 23/7/2 1/8/2 129/9/2 135/10/2 130/11/2 131/12/2
f 12/13/3 22/14/3 41/15/3 42/16/3
f 125/17/4 5/18/4 21/19/4 25/20/4 32/21/4 127/22/4 132/23/4 124/24/4
f 129/9/3 1/8/3 5/25/3 125/26/3 134/27/3 128/28/3
f 16/29/3 17/30/3 14/31/3 5/25/3 1/8/3 13/32/3
f 19/33/1 15/34/1 18/35/1 20/36/1
f 17/37/5 16/29/5 20/36/5 18/35/5
f 21/19/6 5/18/6 14/38/6 15/39/6 19/33/6 13/32/6 1/8/6 23/7/6
f 13/32/2 19/33/2 20/36/2 16/29/2
f 17/40/4 18/41/4 15/39/4 14/38/4
f 35/42/3 33/43/3 45/44/3 47/45/3
f 26/46/3 28/47/3 35/42/3 36/48/3
f 10/49/1 11/50/1 25/20/1 21/19/1
f 4/51/1 9/52/1 23/7/1 27/6/1
f 11/50/1 4/51/1 27/6/1 25/20/1
f 9/52/1 10/49/1 21/19/1 23/7/1
f 22/14/1 12/13/1 32/21/1 25/20/1
f 3/53/1 24/54/1 27/6/1 31/5/1
f 24/54/1 22/14/1 25/20/1 27/6/1
f 12/13/1 3/53/1 31/5/1 32/21/1
f 8/55/1 7/56/1 131/12/1 133/57/1 126/58/1 127/22/1
f 7/56/1 28/47/1 31/5/1 131/12/1
f 26/46/1 8/55/1 127/22/1 32/21/1
f 28/47/1 26/46/1 32/21/1 31/5/1
f 9/52/3 4/51/3 40/59/3 39/60/3
f 28/47/3 7/56/3 33/43/3 35/42/3
f 8/55/3 26/46/3 36/48/3 34/61/3
f 7/56/3 8/55/3 34/61/3 33/43/3
f 38/62/4 37/63/4 61/64/4 62/65/4
f 46/66/4 48/67/4 72/68/4 70/69/4
f 37/63/5 39/60/5 63/70/5 61/64/5
f 4/51/3 11/50/3 38/62/3 40/59/3
f 34/61/3 36/48/3 48/67/3 46/66/3
f 24/54/3 3/53/3 44/71/3 43/72/3
f 10/49/3 9/52/3 39/60/3 37/63/3
f 36/48/3 35/42/3 47/45/3 48/67/3
f 22/14/3 24/54/3 43/72/3 41/15/3
f 11/50/3 10/49/3 37/63/3 38/62/3
f 33/43/3 34/61/3 46/66/3 45/44/3
f 3/53/3 12/13/3 42/16/3 44/71/3
f 44/71/6 42/16/6 66/73/6 68/74/6
f 42/16/4 41/15/4 65/75/4 66/73/4
f 48/67/5 47/45/5 71/76/5 72/68/5
f 39/60/2 40/59/2 64/77/2 63/70/2
f 45/44/6 46/66/6 70/69/6 69/78/6
f 43/72/2 44/71/2 68/74/2 67/79/2
f 40/59/6 38/62/6 62/65/6 64/77/6
f 47/45/2 45/44/2 69/78/2 71/76/2
f 41/15/5 43/72/5 67/79/5 65/75/5
f 49/80/1 50/81/1 62/65/1 61/64/1
f 52/82/1 51/83/1 63/70/1 64/77/1
f 50/81/1 52/82/1 64/77/1 62/65/1
f 51/83/1 49/80/1 61/64/1 63/70/1
f 53/84/1 54/85/1 66/73/1 65/75/1
f 56/86/1 55/87/1 67/79/1 68/74/1
f 55/87/1 53/84/1 65/75/1 67/79/1
f 54/85/1 56/86/1 68/74/1 66/73/1
f 58/88/1 57/89/1 69/78/1 70/69/1
f 57/89/1 59/90/1 71/76/1 69/78/1
f 60/91/1 58/88/1 70/69/1 72/68/1
f 59/90/1 60/91/1 72/68/1 71/76/1
f 135/10/6 139/92/6 128/93/6 134/94/6 138/95/6 124/96/6 132/97/6 137/98/6 126/99/6 133/100/6 136/101/6 130/11/6
f 117/102/1 29/103/1 147/104/1 149/105/1
f 122/2/2 118/106/2 150/107/2 154/3/2
f 116/108/4 30/109/4 143/110/4 148/111/4
f 112/1/6 6/112/6 125/113/6 124/96/6
f 113/114/6 30/109/6 127/115/6 126/99/6
f 114/116/6 2/117/6 129/9/6 128/93/6
f 115/118/6 29/103/6 131/12/6 130/11/6
f 30/109/6 116/108/6 132/97/6 127/115/6
f 29/103/6 117/102/6 133/100/6 131/12/6
f 6/112/6 118/106/6 134/94/6 125/113/6
f 2/117/6 119/119/6 135/10/6 129/9/6
f 117/102/6 120/120/6 136/101/6 133/100/6
f 120/120/6 115/118/6 130/11/6 136/101/6
f 121/121/6 113/114/6 126/99/6 137/98/6
f 116/108/6 121/121/6 137/98/6 132/97/6
f 118/106/6 122/2/6 138/95/6 134/94/6
f 122/2/6 112/1/6 124/96/6 138/95/6
f 123/122/6 114/116/6 128/93/6 139/92/6
f 119/119/6 123/122/6 139/92/6 135/10/6
f 147/104/7 146/123/7 162/124/7 163/125/7
f 142/126/7 153/127/7 169/128/7 158/129/7
f 145/130/8 144/131/8 160/132/8 161/133/8
f 146/123/8 152/134/8 168/135/8 162/124/8
f 118/106/3 6/112/3 141/136/3 150/107/3
f 114/116/4 123/122/4 155/137/4 144/131/4
f 119/119/2 2/117/2 145/130/2 151/138/2
f 6/112/4 112/1/4 140/4/4 141/136/4
f 123/122/1 119/119/1 151/138/1 155/137/1
f 120/120/4 117/102/4 149/105/4 152/134/4
f 30/109/1 113/114/1 142/126/1 143/110/1
f 115/118/3 120/120/3 152/134/3 146/123/3
f 2/117/3 114/116/3 144/131/3 145/130/3
f 113/114/2 121/121/2 153/127/2 142/126/2
f 29/103/2 115/118/2 146/123/2 147/104/2
f 121/121/3 116/108/3 148/111/3 153/127/3
f 171/139/6 167/140/6 161/133/6 160/132/6
f 165/141/6 163/125/6 162/124/6 168/135/6
f 159/142/6 158/129/6 169/128/6 164/143/6
f 156/144/6 170/145/6 166/146/6 157/147/6
f 153/127/8 148/111/8 164/143/8 169/128/8
f 148/111/9 143/110/9 159/142/9 164/143/9
f 154/3/7 150/107/7 166/146/7 170/145/7
f 149/105/10 147/104/10 163/125/10 165/141/10
f 140/4/10 154/3/10 170/145/10 156/144/10
f 150/107/8 141/136/8 157/147/8 166/146/8
f 144/131/9 155/137/9 171/139/9 160/132/9
f 151/138/7 145/130/7 161/133/7 167/140/7
f 141/136/9 140/4/9 156/144/9 157/147/9
f 155/137/10 151/138/10 167/140/10 171/139/10
f 152/134/9 149/105/9 165/141/9 168/135/9
f 143/110/10 142/126/10 158/129/10 159/142/10
usemtl Knob
f 53/84/11 55/87/11 79/148/11 77/149/11
f 59/90/12 57/89/12 81/150/12 83/151/12
f 52/82/13 50/81/13 74/152/13 76/153/13
f 77/149/14 79/148/14 91/154/14 103/155/14 89/156/14
f 83/151/15 81/150/15 93/157/15 106/158/15 95/159/15
f 76/153/16 74/152/16 86/160/16 99/161/16 88/162/16
f 49/80/11 51/83/11 75/163/11 73/164/11
f 58/88/17 60/91/17 84/165/17 82/166/17
f 50/81/17 49/80/17 73/164/17 74/152/17
f 56/86/13 54/85/13 78/167/13 80/168/13
f 54/85/17 53/84/17 77/149/17 78/167/17
f 60/91/11 59/90/11 83/151/11 84/165/11
f 51/83/12 52/82/12 76/153/12 75/163/12
f 57/89/13 58/88/13 82/166/13 81/150/13
f 55/87/12 56/86/12 80/168/12 79/148/12
f 111/169/18 100/170/18 87/171/18 98/172/18
f 110/173/18 103/155/18 91/154/18 102/174/18
f 109/175/19 107/176/19 96/177/19 108/178/19
f 73/164/14 75/163/14 87/171/14 100/170/14 85/179/14
f 82/166/20 84/165/20 96/177/20 107/176/20 94/180/20
f 74/152/20 73/164/20 85/179/20 97/181/20 86/160/20
f 80/168/16 78/167/16 90/182/16 104/183/16 92/184/16
f 78/167/20 77/149/20 89/156/20 101/185/20 90/182/20
f 84/165/14 83/151/14 95/159/14 108/178/14 96/177/14
f 75/163/15 76/153/15 88/162/15 98/172/15 87/171/15
f 81/150/16 82/166/16 94/180/16 105/186/16 93/157/16
f 79/148/15 80/168/15 92/184/15 102/174/15 91/154/15
f 106/158/18 109/175/18 108/178/18 95/159/18
f 93/157/21 105/186/21 109/175/21 106/158/21
f 105/186/22 94/180/22 107/176/22 109/175/22
f 104/183/21 110/173/21 102/174/21 92/184/21
f 90/182/22 101/185/22 110/173/22 104/183/22
f 101/185/19 89/156/19 103/155/19 110/173/19
f 99/161/21 111/169/21 98/172/21 88/162/21
f 86/160/22 97/181/22 111/169/22 99/161/22
f 97/181/19 85/179/19 100/170/19 111/169/19
